<svg class="hidden lg:block h-15 w-auto text-gray-800" width="70" height="93.354" fill="none" aria-labelledby="aoiiqe0tin8rflpsxkvwlodg5v1gzhnn" xmlns="http://www.w3.org/2000/svg"><path d="m13.871 55.444 7.1175-24.651h28.47l7.1174 24.651z" clip-rule="evenodd" fill="#eed9c3" fill-rule="evenodd"/><ellipse cx="44.353" cy="43.295" rx="2.0114" ry="1.9839" fill="#353535"/><g clip-rule="evenodd" fill-rule="evenodd" stroke-width="1.5963"><path d="M31.041 41.039c0-.69279-.56972-1.2545-1.2718-1.2545h-5.9974c-.70221 0-1.2718.56174-1.2718 1.2545v3.8844c0 1.039.85402 1.8814 1.9071 1.8814h2.1831c1.1805 0 2.3121-.46261 3.1474-1.2861.83438-.82273 1.3034-1.9397 1.3034-3.1037v-1.376z" fill="#a78347"/><g fill="#e3b261"><path d="M55.871 7.2325 70 0l-7.7444 28.733-6.3852 6.3852zM14.129 7.2325 0 0l7.7443 28.733 6.3852 6.3852z"/><path d="M56.576 20.343S45.9 13.3226 35.223 13.3226c-10.676 0-21.352 7.0204-21.352 7.0204v21.061l2.8471 5.6162c2.0428-7.7623 11.288-10.996 17.724-6.1989l.7817.58265.7817-.58265c6.4356-4.797 15.681-1.5634 17.724 6.1989l2.847-5.6162z"/></g><path d="m28.105 51.934-5.694 32.995-7.8513-5.6162 6.4277-23.869z" fill="#d4d4d4"/><path d="m42.34 51.934 5.694 32.995 7.8514-5.6162-6.4278-23.869z" fill="#d5d5d5"/><g fill="#e6e6e6"><path d="M13.871 41.404 8.177 62.465l7.1175 14.041 5.694-21.061zM56.575 41.404l5.694 21.061-7.1176 14.041-5.694-21.061zM28.106 51.934l-6.4058 34.399 13.523 7.0202 13.523-7.0202-6.4058-34.399-6.5865-3.2483-.53109-.26179z"/></g><path d="M37.774 53.338h-4.9822v1.7564c0 .65161.26259 1.2756.72951 1.7361s1.0997.71961 1.7602.71961h.0027c.66055 0 1.2933-.25908 1.7602-.71961s.72951-1.0845.72951-1.7361V53.338z" fill="#353535"/></g></svg>